<svg width="100%" height="100%" viewBox="0 0 1521 400" version="1.1" xmlns="http://www.w3.org/2000/svg" xmlns:xlink="http://www.w3.org/1999/xlink" xml:space="preserve" xmlns:serif="http://www.serif.com/" fill-rule="evenodd" clip-rule="evenodd" stroke-linejoin="round" stroke-miterlimit="1.414"><g><path d="M308.94,276.119l-51.639,0l-53.235,-102.682l-0.897,0c1.262,16.15 1.894,28.479 1.894,36.986l0,65.696l-34.892,0l0,-145.748l51.44,0l53.036,101.286l0.598,0c-0.93,-14.688 -1.396,-26.485 -1.396,-35.39l0,-65.896l35.091,0l0,145.748Z" fill="#c11101" fill-rule="nonzero"/><path d="M392.681,278.113c-18.809,0 -33.413,-5.002 -43.814,-15.004c-10.401,-10.002 -15.602,-24.241 -15.602,-42.717c0,-19.074 4.818,-33.712 14.455,-43.914c9.637,-10.202 23.394,-15.303 41.272,-15.303c17.014,0 30.157,4.437 39.428,13.309c9.271,8.873 13.907,21.65 13.907,38.331l0,17.346l-69.684,0c0.266,6.314 2.575,11.265 6.928,14.854c4.354,3.589 10.285,5.384 17.795,5.384c6.846,0 13.143,-0.648 18.892,-1.944c5.748,-1.296 11.979,-3.506 18.692,-6.63l0,28.013c-6.115,3.124 -12.429,5.284 -18.942,6.48c-6.513,1.196 -14.289,1.795 -23.327,1.795Zm-2.293,-90.42c-4.586,0 -8.424,1.446 -11.514,4.337c-3.091,2.891 -4.902,7.427 -5.434,13.607l33.496,0c-0.132,-5.449 -1.678,-9.802 -4.635,-13.059c-2.958,-3.257 -6.929,-4.885 -11.913,-4.885Z" fill="#c11101" fill-rule="nonzero"/><path d="M557.47,276.119l-12.761,-53.833l-2.991,-16.25l-1.993,-13.059l-0.599,0c-3.256,18.609 -5.449,30.339 -6.579,35.191l-11.465,47.951l-40.972,0l-30.805,-112.95l38.381,0l9.172,43.366c2.924,14.887 4.619,27.248 5.084,37.085l0.598,0c0.199,-6.115 2.027,-17.745 5.483,-34.892l10.467,-45.559l43.067,0l9.57,46.157c3.057,14.688 4.985,26.119 5.782,34.294l0.598,0c0.399,-5.051 1.064,-11.349 1.994,-18.892c0.931,-7.543 1.961,-13.608 3.091,-18.193l9.969,-43.366l37.583,0l-31.004,112.95l-41.67,0Z" fill="#c11101" fill-rule="nonzero"/><path d="M805.799,276.119l-46.555,0l-13.957,-63.503c-0.665,-2.659 -1.711,-7.942 -3.14,-15.851c-1.429,-7.909 -2.476,-14.522 -3.141,-19.838c-0.531,4.319 -1.395,9.686 -2.592,16.1c-1.196,6.413 -2.376,12.311 -3.539,17.695c-1.163,5.383 -5.998,27.182 -14.505,65.397l-46.555,0l-36.088,-145.748l37.982,0l15.851,73.073c3.589,16.15 6.048,29.01 7.377,38.581c0.864,-6.779 2.409,-15.984 4.636,-27.615c2.226,-11.63 4.303,-21.267 6.23,-28.91l12.86,-55.129l36.487,0l12.461,55.129c2.127,8.839 4.287,19.041 6.48,30.605c2.194,11.564 3.656,20.204 4.387,25.92c0.864,-7.378 3.223,-20.171 7.078,-38.381l16.15,-73.273l37.982,0l-35.889,145.748Z" fill="#c11101" fill-rule="nonzero"/><path d="M908.68,278.113c-18.808,0 -33.413,-5.002 -43.814,-15.004c-10.401,-10.002 -15.602,-24.241 -15.602,-42.717c0,-19.074 4.819,-33.712 14.456,-43.914c9.636,-10.202 23.394,-15.303 41.272,-15.303c17.013,0 30.156,4.437 39.427,13.309c9.271,8.873 13.907,21.65 13.907,38.331l0,17.346l-69.684,0c0.266,6.314 2.576,11.265 6.929,14.854c4.353,3.589 10.284,5.384 17.795,5.384c6.845,0 13.142,-0.648 18.891,-1.944c5.749,-1.296 11.979,-3.506 18.692,-6.63l0,28.013c-6.114,3.124 -12.428,5.284 -18.941,6.48c-6.513,1.196 -14.289,1.795 -23.328,1.795Zm-2.293,-90.42c-4.586,0 -8.424,1.446 -11.514,4.337c-3.091,2.891 -4.902,7.427 -5.433,13.607l33.496,0c-0.133,-5.449 -1.678,-9.802 -4.636,-13.059c-2.957,-3.257 -6.928,-4.885 -11.913,-4.885Z" fill="#c11101" fill-rule="nonzero"/><path d="M1049.34,161.175c12.295,0 22.048,5.151 29.259,15.452c7.211,10.302 10.816,24.558 10.816,42.768c0,18.343 -3.638,32.715 -10.916,43.116c-7.277,10.401 -17.396,15.602 -30.356,15.602c-4.187,0 -7.908,-0.449 -11.165,-1.346c-3.256,-0.897 -6.164,-2.144 -8.723,-3.739c-2.559,-1.595 -5.533,-4.253 -8.922,-7.975l-2.393,0l-6.181,11.066l-30.405,0l0,-155.119l38.979,0l0,35.091c0,4.187 -0.465,11.398 -1.396,21.633l1.396,0c3.788,-5.848 8.158,-10.069 13.109,-12.661c4.951,-2.592 10.584,-3.888 16.898,-3.888Zm-14.256,30.605c-5.45,0 -9.437,1.895 -11.963,5.683c-2.525,3.788 -3.788,9.736 -3.788,17.844l0,5.483c0,9.238 1.263,15.868 3.788,19.889c2.526,4.021 6.646,6.031 12.362,6.031c4.585,0 8.108,-2.343 10.567,-7.028c2.459,-4.686 3.688,-11.581 3.688,-20.686c0,-18.144 -4.884,-27.216 -14.654,-27.216Z" fill="#c11101" fill-rule="nonzero"/><path d="M1178.24,276.119l-39.378,0l0,-113.548l-35.59,0l0,-32.2l110.458,0l0,32.2l-35.49,0l0,113.548Z" fill="#c11101" fill-rule="nonzero"/><path d="M1272.55,278.113c-18.808,0 -33.413,-5.002 -43.814,-15.004c-10.401,-10.002 -15.601,-24.241 -15.601,-42.717c0,-19.074 4.818,-33.712 14.455,-43.914c9.637,-10.202 23.394,-15.303 41.272,-15.303c17.014,0 30.156,4.437 39.427,13.309c9.272,8.873 13.907,21.65 13.907,38.331l0,17.346l-69.684,0c0.266,6.314 2.576,11.265 6.929,14.854c4.353,3.589 10.285,5.384 17.795,5.384c6.845,0 13.142,-0.648 18.891,-1.944c5.749,-1.296 11.98,-3.506 18.692,-6.63l0,28.013c-6.114,3.124 -12.428,5.284 -18.941,6.48c-6.513,1.196 -14.289,1.795 -23.328,1.795Zm-2.293,-90.42c-4.585,0 -8.423,1.446 -11.514,4.337c-3.09,2.891 -4.901,7.427 -5.433,13.607l33.496,0c-0.133,-5.449 -1.678,-9.802 -4.636,-13.059c-2.957,-3.257 -6.928,-4.885 -11.913,-4.885Z" fill="#c11101" fill-rule="nonzero"/><path d="M1395.67,278.113c-18.476,0 -32.482,-4.985 -42.019,-14.954c-9.537,-9.969 -14.306,-24.291 -14.306,-42.967c0,-18.742 5.151,-33.263 15.452,-43.565c10.302,-10.301 24.956,-15.452 43.964,-15.452c13.093,0 25.421,2.858 36.985,8.574l-11.464,28.81c-4.719,-2.06 -9.072,-3.705 -13.06,-4.934c-3.987,-1.23 -8.141,-1.845 -12.461,-1.845c-6.314,0 -11.199,2.459 -14.655,7.378c-3.456,4.918 -5.184,11.863 -5.184,20.835c0,18.077 6.68,27.116 20.038,27.116c11.431,0 22.397,-3.323 32.898,-9.969l0,31.004c-10.035,6.646 -22.098,9.969 -36.188,9.969Z" fill="#c11101" fill-rule="nonzero"/><path d="M1449.09,137.663l6.511,0l0,14.078c-2.265,0.882 -4.619,1.323 -7.06,1.323c-3.242,0 -5.758,-1.357 -7.548,-4.069c-1.791,-2.713 -2.686,-6.477 -2.686,-11.292c0,-4.828 0.926,-8.572 2.777,-11.23c1.852,-2.659 4.453,-3.988 7.803,-3.988c2.251,0 4.374,0.638 6.368,1.913l-0.956,1.749c-1.872,-1.193 -3.676,-1.79 -5.412,-1.79c-2.781,0 -4.886,1.143 -6.317,3.428c-1.431,2.286 -2.147,5.605 -2.147,9.959c0,4.259 0.722,7.558 2.167,9.898c1.444,2.34 3.489,3.509 6.134,3.509c1.899,0 3.52,-0.251 4.862,-0.752l0,-10.824l-4.496,0l0,-1.912Z" fill="#c11101" fill-rule="nonzero"/><path d="M1479.62,152.657l0,-15.035c0,-3.703 -1.085,-5.554 -3.255,-5.554c-1.492,0 -2.567,0.647 -3.225,1.943c-0.658,1.295 -0.987,3.204 -0.987,5.727l0,12.919l-1.912,0l0,-15.035c0,-1.872 -0.264,-3.265 -0.793,-4.181c-0.529,-0.916 -1.35,-1.373 -2.462,-1.373c-1.465,0 -2.53,0.664 -3.194,1.994c-0.665,1.329 -0.997,3.485 -0.997,6.469l0,12.126l-1.933,0l0,-22.074l1.628,0l0.162,3.072l0.183,0c0.882,-2.333 2.381,-3.5 4.497,-3.5c1.22,0 2.183,0.326 2.889,0.977c0.705,0.651 1.214,1.6 1.526,2.848c0.529,-1.356 1.18,-2.333 1.953,-2.93c0.773,-0.596 1.777,-0.895 3.011,-0.895c1.668,0 2.889,0.641 3.662,1.923c0.773,1.282 1.16,3.333 1.16,6.154l0,14.425l-1.913,0Z" fill="#c11101" fill-rule="nonzero"/><path d="M1494.21,130.196c4.313,0 6.469,3.791 6.469,11.373c0,3.743 -0.536,6.595 -1.607,8.555c-1.072,1.96 -2.618,2.94 -4.639,2.94c-1.058,0 -2.021,-0.292 -2.889,-0.875c-0.868,-0.583 -1.587,-1.445 -2.156,-2.584l-0.163,0l-0.265,3.052l-1.586,0l0,-31.657l1.932,0l0,9.827l-0.081,2.665l0.163,0c1.166,-2.197 2.773,-3.296 4.822,-3.296Zm-0.082,1.79c-1.695,0 -2.923,0.746 -3.682,2.238c-0.76,1.492 -1.14,3.94 -1.14,7.345l0,0.508c0,6.158 1.635,9.237 4.904,9.237c1.491,0 2.607,-0.793 3.346,-2.38c0.739,-1.587 1.109,-4.042 1.109,-7.365c0,-3.188 -0.359,-5.581 -1.078,-7.182c-0.719,-1.6 -1.872,-2.401 -3.459,-2.401Z" fill="#c11101" fill-rule="nonzero"/><path d="M1520.21,152.657l-1.993,0l0,-14.628l-10.376,0l0,14.628l-1.994,0l0,-29.745l1.994,0l0,13.204l10.376,0l0,-13.204l1.993,0l0,29.745Z" fill="#c11101" fill-rule="nonzero"/><circle cx="72.863" cy="203.243" r="72.863" fill="#c11101"/></g><path d="M99.603,243.953l-65.792,-37.715l0,-6.364l65.792,-37.342l0,9.359l-56.153,31.258l56.153,31.258l0,9.546Z" fill="#fff" fill-rule="nonzero"/></svg>